# xmcd
#
# Track frame offsets:
#       150
#       12899
#       27801
#       43878
#       57139
#       71366
#       84094
#       100020
#       109951
#       123978
#       136607
#       149506
#       161694
#       180561
#       191312
#       203330
#       219526
#       233198
#       246570
#       263969
#       275788
#       290750
#       305035
#       316373
#
# Disc length: 4437 seconds
#
# Revision: 1
# Processed by: cddbd v1.5.2PL0 Copyright (c) Steve Scherf et al.
# Submitted via: FreeDbEdit v0.1
#
DISCID=5d115318
DTITLE=Gib Guilbeau - Songs I Like
DYEAR=2003
DGENRE=Country
TTITLE0=No Matter Where You Go
TTITLE1=That's How People Are
TTITLE2=My Robin
TTITLE3=In the Bahama's
TTITLE4=Red Mountain Wine
TTITLE5=It's Your Game Mary Jane
TTITLE6=Sweet Rosie
TTITLE7=Gentle Way of Loving Me
TTITLE8=Walk on the Water
TTITLE9=Moma Had No Place to Go
TTITLE10=In the Morning
TTITLE11=River People
TTITLE12=Nickels and Dimes
TTITLE13=Jump Frog
TTITLE14=A Woman's Disgrace
TTITLE15=Long Gone World of Mine
TTITLE16=A Quarter Till Two
TTITLE17=Caroline Gives
TTITLE18=You'll Just Have to Trust Me
TTITLE19=You're Mine
TTITLE20=If I Were You
TTITLE21=I'll Live Today
TTITLE22=I Can't Believe It's Me
TTITLE23=Miles and Cities
EXTD=
EXTT0=
EXTT1=
EXTT2=
EXTT3=
EXTT4=
EXTT5=
EXTT6=
EXTT7=
EXTT8=
EXTT9=
EXTT10=
EXTT11=
EXTT12=
EXTT13=
EXTT14=
EXTT15=
EXTT16=
EXTT17=
EXTT18=
EXTT19=
EXTT20=
EXTT21=
EXTT22=
EXTT23=
PLAYORDER=
